<?xml version="1.0" encoding="UTF-8"?><svg id="_é£_1" xmlns="http://www.w3.org/2000/svg" viewBox="0 0 588.24 1176.47"><defs><style>.cls-1{fill:#242424;}</style></defs><path class="cls-1" d="M119.46,1044c-2.66-17.35-1.82-35.71-1.33-53.2,.56-18.12,2.03-36.2,4.93-54.11,5.18-31.52,14.97-62.72,30.4-90.77,15.56-28.3,37.67-51.24,64.92-68.52,18.26-11.12,39.32-17.18,60.76-15.39,21.69,1.82,42.08,10.35,62.99,15.7,33.47,8.54,72.47,12.8,100.18-12.28,.1-.04,.17-.14,.28-.21,.11-.11,.18-.18,.25-.28,7.34-7.17,12.94-16.02,14.94-26.16,2.34-12-2.9-22.53-2.9-34.31,.04-15.6,17.24-15.36,26.16-24.28,6.44-6.44,9.42-14.46,9.28-23.46-.06-3.92-2.68-7.73-4.78-9.95-2.55-2.69-6.35-5.68-6.74-9.48-1.04-10.22,16.3-5.6,23.44-6.96,6.48-1.24,10.84-5.6,13.99-10.99,.11-.14,.21-.28,.28-.42,.07-.14,.14-.28,.17-.42,2.73-5.6,4.65-11.68,3.95-17.94-.77-7.31-5.7-11.3-9.48-17.17-6.3-9.9-5.49-21.41,1.92-30.6,7.14-8.85,18.89-10.14,29.42-11.65,15.15-2.13,31.13-6.44,40.4-19.69,9.02-12.91,5.77-27.18-3.18-39.11-14.48-20.08-28.51-40.54-42.78-60.76-14.48-20.46-27.74-42.22-34.03-66.74-3.46-13.61-3.08-26.72,3.18-39.38,4.72-9.51,11.33-17.91,16.44-27.21,9.58-17.35,11.86-37.81,10.46-57.33v-.14c-2.55-41.86-9.99-83.17-22.07-123.02-.82-2.7-1.11-5.66-1.02-8.48,.13-3.88,.93-7.62,1.93-10.27,11.41-29.8,7.7-60.8-3.46-89.04H0V1176.47H196.33c-14.09-21-29.65-41.48-43.65-61.43-14.97-21.3-29.17-44.91-33.23-71.04Z"/></svg>