<?xml version="1.0" encoding="UTF-8"?><svg id="Layer_1" xmlns="http://www.w3.org/2000/svg" viewBox="0 0 1691.97 1553.63"><path d="M1656.25,1511.25c0,4.39-3.55,7.94-7.94,7.94H54.03c-4.38,0-7.94-3.55-7.94-7.94V85.45c0-4.39,3.55-7.94,7.94-7.94,0,0,813.94-16.46,1062.24,74.98,1.52,.56,3.11,.97,4.69,1.48,58.31,18.76,132.37,57.32,175.91,100.78,84.16,83.98,67.38,129.24,106.9,175.67,31.51,37.02,77.4,44.67,126.66,71.12,49.37,26.49-20.38,75.45-27.83,87.78-11.17,18.5,10.67,30.61,26.9,40.92,9.97,6.37,6.82,23.05-1.83,33.44-3.22,3.86-2.15,9.68,2.27,12.08,5.2,2.83,10.23,7.84,12.25,16.71,3.85,17.11-23.05,26.79-19.07,44.3,3.97,17.52,22.46,15.84,30.65,52.09,8.24,36.24-28.51,61.34-59.47,70-54.76,15.31-96.85,46.95-122.83,75.18-25.98,28.24-88.64,83.76-51.83,196.25,3.09,9.48,6.77,18.14,10.95,26.15,31.61,60.65,91.29,84.09,144.67,127.68,181.27,148.01,180.99,227.13,180.99,227.13Z"/></svg>