<svg width="589" height="1177" viewBox="0 0 589 1177" fill="none" xmlns="http://www.w3.org/2000/svg">
<g clip-path="url(#clip0_1_4)">
<path d="M468.78 1044C471.44 1026.65 470.6 1008.29 470.11 990.8C469.55 972.68 468.08 954.6 465.18 936.69C460 905.17 450.21 873.97 434.78 845.92C419.22 817.62 397.11 794.68 369.86 777.4C351.6 766.28 330.54 760.22 309.1 762.01C287.41 763.83 267.02 772.36 246.11 777.71C212.64 786.25 173.64 790.51 145.93 765.43C145.83 765.39 145.76 765.29 145.65 765.22C145.54 765.11 145.47 765.04 145.4 764.94C138.06 757.77 132.46 748.92 130.46 738.78C128.12 726.78 133.36 716.25 133.36 704.47C133.32 688.87 116.12 689.11 107.2 680.19C100.76 673.75 97.78 665.73 97.92 656.73C97.98 652.81 100.6 649 102.7 646.78C105.25 644.09 109.05 641.1 109.44 637.3C110.48 627.08 93.14 631.7 86 630.34C79.52 629.1 75.16 624.74 72.01 619.35C71.9 619.21 71.8 619.07 71.73 618.93C71.66 618.79 71.59 618.65 71.56 618.51C68.83 612.91 66.91 606.83 67.61 600.57C68.38 593.26 73.31 589.27 77.09 583.4C83.39 573.5 82.58 561.99 75.17 552.8C68.03 543.95 56.28 542.66 45.75 541.15C30.6 539.02 14.62 534.71 5.34998 521.46C-3.67002 508.55 -0.420032 494.28 8.52997 482.35C23.01 462.27 37.04 441.81 51.31 421.59C65.79 401.13 79.05 379.37 85.34 354.85C88.8 341.24 88.42 328.13 82.16 315.47C77.44 305.96 70.83 297.56 65.72 288.26C56.14 270.91 53.86 250.45 55.26 230.93V230.79C57.81 188.93 65.25 147.62 77.33 107.77C78.15 105.07 78.44 102.11 78.35 99.29C78.22 95.41 77.42 91.67 76.42 89.02C65.01 59.22 68.72 28.22 79.88 -0.0200195H588.24V1176.47H391.91C406 1155.47 421.56 1134.99 435.56 1115.04C450.53 1093.74 464.73 1070.13 468.79 1044H468.78Z" fill="black"/>
</g>
<defs>
<clipPath id="clip0_1_4">
<rect width="588.24" height="1176.47" fill="white" transform="matrix(-1 0 0 1 588.24 0)"/>
</clipPath>
</defs>
</svg>
