<svg width="1611" height="1444" viewBox="0 0 1611 1444" fill="none" xmlns="http://www.w3.org/2000/svg">
<path d="M0.589966 1435.25C0.589966 1439.64 4.13991 1443.19 8.52991 1443.19H1602.81C1607.19 1443.19 1610.75 1439.64 1610.75 1435.25V9.44998C1610.75 5.05998 1607.2 1.50999 1602.81 1.50999C1602.81 1.50999 788.87 -14.95 540.57 76.49C539.05 77.05 537.46 77.46 535.88 77.97C477.57 96.73 403.51 135.29 359.97 178.75C275.81 262.73 292.59 307.99 253.07 354.42C221.56 391.44 175.67 399.09 126.41 425.54C77.0399 452.03 146.79 500.99 154.24 513.32C165.41 531.82 143.57 543.93 127.34 554.24C117.37 560.61 120.52 577.29 129.17 587.68C132.39 591.54 131.32 597.36 126.9 599.76C121.7 602.59 116.67 607.6 114.65 616.47C110.8 633.58 137.7 643.26 133.72 660.77C129.75 678.29 111.26 676.61 103.07 712.86C94.8299 749.1 131.58 774.2 162.54 782.86C217.3 798.17 259.39 829.81 285.37 858.04C311.35 886.28 374.01 941.8 337.2 1054.29C334.11 1063.77 330.43 1072.43 326.25 1080.44C294.64 1141.09 234.96 1164.53 181.58 1208.12C0.309952 1356.13 0.589966 1435.25 0.589966 1435.25Z" fill="black"/>
</svg>
